<svg width="134" height="40" viewBox="0 0 134 40" fill="none" xmlns="http://www.w3.org/2000/svg">
<path d="M61.9049 30.324L64.3847 34.0711H67.1045V5L61.9049 5.45295V30.324ZM62.9848 27.3592C62.0516 28.2377 61.1717 28.8965 60.3451 29.3357C59.5451 29.7749 58.6919 29.9945 57.7853 29.9945C56.852 29.9945 56.0254 29.7475 55.3055 29.2534C54.6122 28.7318 54.0789 28.0318 53.7056 27.1533C53.359 26.2749 53.1857 25.2729 53.1857 24.1474C53.1857 22.967 53.359 21.9375 53.7056 21.0591C54.0789 20.1532 54.6122 19.4395 55.3055 18.9179C55.9988 18.3963 56.8387 18.1355 57.8253 18.1355C58.7052 18.1355 59.5451 18.3414 60.3451 18.7532C61.1717 19.1375 62.0649 19.865 63.0248 20.9356L64.4647 17.312C64.0648 16.6806 63.4915 16.0767 62.7449 15.5002C62.0249 14.9237 61.2117 14.457 60.3051 14.1002C59.4251 13.7433 58.5719 13.5649 57.7453 13.5649C55.6654 13.5649 53.8789 14.0178 52.3857 14.9237C50.9192 15.8021 49.7859 17.0375 48.986 18.6296C48.2127 20.1944 47.8261 22.0336 47.8261 24.1474C47.8261 26.2337 48.2127 28.0592 48.986 29.624C49.7859 31.1887 50.9192 32.4103 52.3857 33.2887C53.8523 34.1397 55.5855 34.5652 57.5853 34.5652C58.5185 34.5652 59.3851 34.4142 60.1851 34.1123C61.0117 33.8103 61.7849 33.3848 62.5049 32.8358C63.2248 32.2593 63.8781 31.6005 64.4647 30.8593L62.9848 27.3592Z" fill="white"/>
<path d="M81.074 34.5652C78.9675 34.5652 77.141 34.1397 75.5944 33.2887C74.0479 32.4377 72.848 31.2299 71.9947 29.6651C71.1415 28.0729 70.7148 26.22 70.7148 24.1062C70.7415 21.965 71.1681 20.112 71.9947 18.5473C72.848 16.9551 74.0479 15.7335 75.5944 14.8825C77.1676 14.0041 78.9942 13.5649 81.074 13.5649C83.2071 13.5649 85.0336 13.9904 86.5535 14.8413C88.1001 15.6923 89.3 16.9002 90.1532 18.4649C91.0065 20.0297 91.4331 21.8826 91.4331 24.0239C91.4331 26.1376 91.0065 27.9906 90.1532 29.5828C89.3 31.175 88.1001 32.4103 86.5535 33.2887C85.007 34.1397 83.1805 34.5652 81.074 34.5652ZM81.114 29.9945C82.1006 29.9945 82.9538 29.7338 83.6738 29.2122C84.4204 28.6906 85.007 27.9769 85.4336 27.071C85.8603 26.1651 86.0736 25.1494 86.0736 24.0239C86.0736 22.8709 85.8603 21.8552 85.4336 20.9767C85.007 20.0983 84.4204 19.412 83.6738 18.9179C82.9272 18.3963 82.0606 18.1355 81.074 18.1355C80.1141 18.1355 79.2475 18.3963 78.4742 18.9179C77.7276 19.4395 77.141 20.1532 76.7143 21.0591C76.2877 21.9375 76.0744 22.9533 76.0744 24.1062C76.0744 25.2592 76.2877 26.2749 76.7143 27.1533C77.141 28.0318 77.7409 28.7318 78.5142 29.2534C79.2875 29.7475 80.1541 29.9945 81.114 29.9945Z" fill="white"/>
<path d="M108.967 28.6357C108.034 29.0749 107.154 29.4181 106.327 29.6651C105.501 29.8847 104.661 29.9945 103.807 29.9945C102.847 29.9945 101.981 29.7475 101.208 29.2534C100.434 28.7318 99.8344 28.0318 99.4078 27.1533C98.9811 26.2749 98.7678 25.2592 98.7678 24.1062C98.7678 22.9533 98.9811 21.9375 99.4078 21.0591C99.8344 20.1532 100.421 19.4395 101.168 18.9179C101.941 18.3963 102.807 18.1355 103.767 18.1355C104.674 18.1355 105.527 18.2591 106.327 18.5061C107.154 18.7257 108.034 19.0551 108.967 19.4944L110.447 15.6649C109.807 15.1982 109.06 14.8139 108.207 14.5119C107.38 14.21 106.567 13.9766 105.767 13.8119C104.967 13.6472 104.287 13.5649 103.727 13.5649C101.648 13.5649 99.8344 14.0041 98.2879 14.8825C96.7413 15.7335 95.5414 16.9551 94.6882 18.5473C93.8616 20.112 93.4349 21.965 93.4083 24.1062C93.4083 26.22 93.8349 28.0729 94.6882 29.6651C95.5414 31.2299 96.7413 32.4377 98.2879 33.2887C99.8344 34.1397 101.648 34.5652 103.727 34.5652C104.287 34.5652 104.967 34.4966 105.767 34.3593C106.567 34.2221 107.394 34.0025 108.247 33.7005C109.127 33.3711 109.86 32.973 110.447 32.5064L108.967 28.6357Z" fill="white"/>
<path d="M111.753 18.2179H114.753V34.0711H120.032V18.2179H125.312L123.672 14.1825H120.032V13.4001C120.032 12.3295 120.232 11.4648 120.632 10.806C121.059 10.1197 121.712 9.77655 122.592 9.77655C122.912 9.77655 123.245 9.83146 123.592 9.94126C123.965 10.0236 124.352 10.1609 124.752 10.353L126.232 6.4412C125.965 6.19414 125.605 5.97453 125.152 5.78237C124.725 5.59021 124.259 5.43923 123.752 5.32942C123.245 5.21961 122.779 5.16471 122.352 5.16471C120.752 5.16471 119.392 5.46668 118.272 6.07061C117.153 6.67454 116.286 7.53926 115.673 8.66477C115.059 9.76283 114.753 11.0805 114.753 12.6178V14.1825H111.793L111.753 18.2179Z" fill="white"/>
<path d="M133.673 34.0711V14.1002H128.434V34.0711H133.673ZM131.033 11.3001C131.833 11.3001 132.513 11.0119 133.073 10.4354C133.633 9.83146 133.913 9.10399 133.913 8.253C133.913 7.402 133.62 6.68827 133.033 6.11179C132.473 5.5353 131.793 5.24706 130.993 5.24706C130.193 5.24706 129.513 5.5353 128.953 6.11179C128.394 6.68827 128.114 7.402 128.114 8.253C128.114 9.10399 128.394 9.83146 128.953 10.4354C129.513 11.0119 130.207 11.3001 131.033 11.3001Z" fill="white"/>
<path d="M40 20C40 31.0457 31.0457 40 20 40C8.9543 40 0 31.0457 0 20C0 8.9543 8.9543 0 20 0C31.0457 0 40 8.9543 40 20Z" fill="#15C590"/>
<path d="M29.66 18.44L28.68 22.62C27.84 26.23 26.18 27.69 23.06 27.39C22.56 27.35 22.02 27.26 21.44 27.12L19.76 26.72C15.59 25.73 14.3 23.67 15.28 19.49L16.26 15.3C16.46 14.45 16.7 13.71 17 13.1C18.17 10.68 20.16 10.03 23.5 10.82L25.17 11.21C29.36 12.19 30.64 14.26 29.66 18.44Z" stroke="white" stroke-width="1.5" stroke-linecap="round" stroke-linejoin="round"/>
<path d="M23.06 27.3901C22.44 27.8101 21.66 28.1601 20.71 28.4701L19.13 28.9901C15.16 30.2701 13.07 29.2001 11.78 25.2301L10.5 21.2801C9.22001 17.3101 10.28 15.2101 14.25 13.9301L15.83 13.4101C16.24 13.2801 16.63 13.1701 17 13.1001C16.7 13.7101 16.46 14.4501 16.26 15.3001L15.28 19.4901C14.3 23.6701 15.59 25.7301 19.76 26.7201L21.44 27.1201C22.02 27.2601 22.56 27.3501 23.06 27.3901Z" stroke="white" stroke-width="1.5" stroke-linecap="round" stroke-linejoin="round"/>
<path d="M20.64 16.5298L25.49 17.7598" stroke="white" stroke-width="1.5" stroke-linecap="round" stroke-linejoin="round"/>
<path d="M19.66 20.3999L22.56 21.1399" stroke="white" stroke-width="1.5" stroke-linecap="round" stroke-linejoin="round"/>
</svg>
