<svg width="124" height="37" viewBox="0 0 124 37" fill="none" xmlns="http://www.w3.org/2000/svg">
<path d="M57.2621 28.0497L59.5559 31.5158H62.0717V4.625L57.2621 5.04398V28.0497ZM58.261 25.3073C57.3977 26.1198 56.5838 26.7293 55.8192 27.1355C55.0792 27.5418 54.29 27.745 53.4514 27.745C52.5881 27.745 51.8235 27.5164 51.1576 27.0594C50.5163 26.5769 50.023 25.9294 49.6777 25.1168C49.357 24.3043 49.1967 23.3774 49.1967 22.3363C49.1967 21.2445 49.357 20.2922 49.6777 19.4797C50.023 18.6417 50.5163 17.9815 51.1576 17.499C51.7988 17.0166 52.5758 16.7754 53.4884 16.7754C54.3023 16.7754 55.0792 16.9658 55.8192 17.3467C56.5838 17.7022 57.41 18.3751 58.298 19.3654L59.6299 16.0136C59.2599 15.4295 58.7296 14.8709 58.039 14.3377C57.3731 13.8044 56.6208 13.3727 55.7822 13.0426C54.9683 12.7125 54.179 12.5475 53.4144 12.5475C51.4905 12.5475 49.838 12.9665 48.4568 13.8044C47.1002 14.617 46.052 15.7597 45.312 17.2324C44.5968 18.6798 44.2391 20.3811 44.2391 22.3363C44.2391 24.2662 44.5968 25.9548 45.312 27.4022C46.052 28.8495 47.1002 29.9795 48.4568 30.7921C49.8133 31.5792 51.4165 31.9728 53.2664 31.9728C54.1297 31.9728 54.9313 31.8332 55.6712 31.5538C56.4358 31.2745 57.1511 30.8809 57.817 30.3731C58.483 29.8398 59.0872 29.2304 59.6299 28.5448L58.261 25.3073Z" fill="white"/>
<path d="M74.9934 31.9728C73.0449 31.9728 71.3554 31.5792 69.9248 30.7921C68.4943 30.0049 67.3844 28.8876 66.5951 27.4402C65.8059 25.9675 65.4112 24.2535 65.4112 22.2982C65.4359 20.3176 65.8305 18.6036 66.5951 17.1562C67.3844 15.6835 68.4943 14.5535 69.9248 13.7663C71.3801 12.9538 73.0696 12.5475 74.9934 12.5475C76.9666 12.5475 78.6561 12.9411 80.062 13.7282C81.4926 14.5154 82.6025 15.6327 83.3917 17.0801C84.181 18.5274 84.5756 20.2414 84.5756 22.2221C84.5756 24.1773 84.181 25.8913 83.3917 27.3641C82.6025 28.8368 81.4926 29.9795 80.062 30.7921C78.6315 31.5792 76.9419 31.9728 74.9934 31.9728ZM75.0304 27.745C75.943 27.745 76.7323 27.5037 77.3982 27.0213C78.0888 26.5388 78.6315 25.8786 79.0261 25.0406C79.4207 24.2027 79.618 23.2632 79.618 22.2221C79.618 21.1556 79.4207 20.2161 79.0261 19.4035C78.6315 18.5909 78.0888 17.9561 77.3982 17.499C76.7076 17.0166 75.906 16.7754 74.9934 16.7754C74.1055 16.7754 73.3039 17.0166 72.5886 17.499C71.898 17.9815 71.3554 18.6417 70.9608 19.4797C70.5661 20.2922 70.3688 21.2318 70.3688 22.2982C70.3688 23.3647 70.5661 24.3043 70.9608 25.1168C71.3554 25.9294 71.9103 26.5769 72.6256 27.0594C73.3409 27.5164 74.1425 27.745 75.0304 27.745Z" fill="white"/>
<path d="M100.794 26.488C99.9312 26.8943 99.1173 27.2117 98.3527 27.4402C97.5881 27.6434 96.8111 27.745 96.0219 27.745C95.1339 27.745 94.3323 27.5164 93.6171 27.0594C92.9018 26.5769 92.3468 25.9294 91.9522 25.1168C91.5576 24.3043 91.3602 23.3647 91.3602 22.2982C91.3602 21.2318 91.5576 20.2922 91.9522 19.4797C92.3468 18.6417 92.8895 17.9815 93.5801 17.499C94.2953 17.0166 95.0969 16.7754 95.9849 16.7754C96.8235 16.7754 97.6127 16.8896 98.3527 17.1182C99.1173 17.3213 99.9312 17.626 100.794 18.0323L102.163 14.49C101.571 14.0583 100.881 13.7029 100.092 13.4235C99.3269 13.1442 98.5746 12.9284 97.8347 12.776C97.0948 12.6237 96.4658 12.5475 95.9479 12.5475C94.024 12.5475 92.3468 12.9538 90.9163 13.7663C89.4857 14.5535 88.3758 15.6835 87.5866 17.1562C86.8219 18.6036 86.4273 20.3176 86.4026 22.2982C86.4026 24.2535 86.7973 25.9675 87.5866 27.4402C88.3758 28.8876 89.4857 30.0049 90.9163 30.7921C92.3468 31.5792 94.024 31.9728 95.9479 31.9728C96.4658 31.9728 97.0948 31.9093 97.8347 31.7824C98.5746 31.6554 99.3392 31.4523 100.129 31.173C100.942 30.8682 101.621 30.5001 102.163 30.0684L100.794 26.488Z" fill="white"/>
<path d="M103.372 16.8515H106.146V31.5158H111.03V16.8515H115.913L114.397 13.1188H111.03V12.3951C111.03 11.4048 111.215 10.605 111.585 9.99553C111.979 9.36072 112.584 9.04331 113.398 9.04331C113.694 9.04331 114.002 9.0941 114.323 9.19567C114.668 9.27185 115.026 9.39881 115.396 9.57656L116.764 5.95811C116.518 5.72958 116.185 5.52644 115.766 5.34869C115.371 5.17094 114.939 5.03128 114.471 4.92971C114.002 4.82814 113.57 4.77736 113.176 4.77736C111.696 4.77736 110.438 5.05667 109.402 5.61531C108.366 6.17395 107.565 6.97381 106.997 8.01491C106.43 9.03061 106.146 10.2495 106.146 11.6714V13.1188H103.409L103.372 16.8515Z" fill="white"/>
<path d="M123.648 31.5158V13.0426H118.801V31.5158H123.648ZM121.206 10.4526C121.946 10.4526 122.575 10.186 123.093 9.65274C123.611 9.0941 123.87 8.42119 123.87 7.63402C123.87 6.84685 123.598 6.18665 123.056 5.6534C122.538 5.12016 121.909 4.85353 121.169 4.85353C120.429 4.85353 119.8 5.12016 119.282 5.6534C118.764 6.18665 118.505 6.84685 118.505 7.63402C118.505 8.42119 118.764 9.0941 119.282 9.65274C119.8 10.186 120.441 10.4526 121.206 10.4526Z" fill="white"/>
<path d="M37 18.5C37 28.7173 28.7173 37 18.5 37C8.28273 37 0 28.7173 0 18.5C0 8.28273 8.28273 0 18.5 0C28.7173 0 37 8.28273 37 18.5Z" fill="#F8851C"/>
<path d="M27.4355 17.057L26.529 20.9235C25.752 24.2628 24.2165 25.6133 21.3305 25.3358C20.868 25.2988 20.3685 25.2155 19.832 25.086L18.278 24.716C14.4208 23.8003 13.2275 21.8948 14.134 18.0283L15.0405 14.1525C15.2255 13.3663 15.4475 12.6818 15.725 12.1175C16.8073 9.87902 18.648 9.27777 21.7375 10.0085L23.2823 10.3693C27.158 11.2758 28.342 13.1905 27.4355 17.057Z" stroke="white" stroke-width="1.5" stroke-linecap="round" stroke-linejoin="round"/>
<path d="M21.3305 25.3359C20.757 25.7244 20.0355 26.0482 19.1568 26.3349L17.6953 26.8159C14.023 27.9999 12.0898 27.0102 10.8965 23.3379L9.71252 19.6842C8.52852 16.0119 9.50902 14.0694 13.1813 12.8854L14.6428 12.4044C15.022 12.2842 15.3828 12.1824 15.725 12.1177C15.4475 12.6819 15.2255 13.3664 15.0405 14.1527L14.134 18.0284C13.2275 21.8949 14.4208 23.8004 18.278 24.7162L19.832 25.0862C20.3685 25.2157 20.868 25.2989 21.3305 25.3359Z" stroke="white" stroke-width="1.5" stroke-linecap="round" stroke-linejoin="round"/>
<path d="M19.092 15.2905L23.5783 16.4283" stroke="white" stroke-width="1.5" stroke-linecap="round" stroke-linejoin="round"/>
<path d="M18.1855 18.8701L20.868 19.5546" stroke="white" stroke-width="1.5" stroke-linecap="round" stroke-linejoin="round"/>
</svg>
