<svg width="16" height="17" viewBox="0 0 16 17" fill="none" xmlns="http://www.w3.org/2000/svg">
<path d="M12.375 7.6875C12.375 7.47656 12.1641 7.26562 11.9531 7.26562H8.85938V4.17188C8.85938 3.96094 8.64844 3.75 8.4375 3.75H7.3125C7.06641 3.75 6.89062 3.96094 6.89062 4.17188V7.26562H3.79688C3.55078 7.26562 3.375 7.47656 3.375 7.6875V8.8125C3.375 9.05859 3.55078 9.23438 3.79688 9.23438H6.89062V12.3281C6.89062 12.5742 7.06641 12.75 7.3125 12.75H8.4375C8.64844 12.75 8.85938 12.5742 8.85938 12.3281V9.23438H11.9531C12.1641 9.23438 12.375 9.05859 12.375 8.8125V7.6875ZM15.75 2.0625C15.75 1.14844 14.9766 0.375 14.0625 0.375H1.6875C0.738281 0.375 0 1.14844 0 2.0625V14.4375C0 15.3867 0.738281 16.125 1.6875 16.125H14.0625C14.9766 16.125 15.75 15.3867 15.75 14.4375V2.0625ZM14.0625 14.2266C14.0625 14.3672 13.957 14.4375 13.8516 14.4375H1.89844C1.75781 14.4375 1.6875 14.3672 1.6875 14.2266V2.27344C1.6875 2.16797 1.75781 2.0625 1.89844 2.0625H13.8516C13.957 2.0625 14.0625 2.16797 14.0625 2.27344V14.2266Z" fill="#4F4FF4"/>
</svg>
