<svg width="16" height="17" viewBox="0 0 16 17" fill="none" xmlns="http://www.w3.org/2000/svg">
<path d="M12.2031 7.76562L4.04688 7.76562C3.83594 7.76562 3.625 7.94141 3.625 8.1875L3.625 9.3125C3.625 9.52344 3.83594 9.73437 4.04688 9.73437L12.2031 9.73438C12.4492 9.73438 12.625 9.52344 12.625 9.3125V8.1875C12.625 7.94141 12.4492 7.76562 12.2031 7.76562ZM0.25 14.9375C0.25 15.8516 1.02344 16.625 1.9375 16.625H14.3125C15.2617 16.625 16 15.8516 16 14.9375V2.5625C16 1.61328 15.2617 0.875 14.3125 0.875H1.9375C1.02344 0.875 0.25 1.61328 0.25 2.5625L0.25 14.9375ZM1.9375 2.77344C1.9375 2.63281 2.04297 2.5625 2.14844 2.5625H14.1016C14.2422 2.5625 14.3125 2.63281 14.3125 2.77344L14.3125 14.7266C14.3125 14.832 14.2422 14.9375 14.1016 14.9375H2.14844C2.04297 14.9375 1.9375 14.832 1.9375 14.7266L1.9375 2.77344Z" fill="#4F4FF4"/>
</svg>
