<svg width="108" height="85" viewBox="0 0 108 85" fill="none" xmlns="http://www.w3.org/2000/svg">
<path d="M42.0864 7.63626C35.9886 7.63626 30.2894 8.67033 24.9888 10.7385C19.6881 12.8066 15.4735 15.6106 12.3449 19.1503C9.21636 22.69 7.65207 26.4883 7.65207 30.545C7.65207 33.8063 8.70821 36.9483 10.8205 39.971C12.9328 42.9937 15.9019 45.6187 19.728 47.8459L25.5268 51.1868L23.4345 56.1981C24.7895 55.4026 26.025 54.6271 27.1409 53.8714L29.7713 52.022L32.9398 52.6186C36.0484 53.1754 39.0973 53.4538 42.0864 53.4538C48.1841 53.4538 53.8833 52.4197 59.1839 50.3516C64.4846 48.2834 68.6992 45.4795 71.8278 41.9398C74.9564 38.4 76.5207 34.6018 76.5207 30.545C76.5207 26.4883 74.9564 22.69 71.8278 19.1503C68.6992 15.6106 64.4846 12.8066 59.1839 10.7385C53.8833 8.67033 48.1841 7.63626 42.0864 7.63626ZM42.0864 0C49.6986 0 56.7429 1.3622 63.2192 4.08659C69.6956 6.81098 74.8069 10.5197 78.5532 15.2129C82.2996 19.906 84.1727 25.0167 84.1727 30.545C84.1727 36.0734 82.2996 41.1841 78.5532 45.8772C74.8069 50.5703 69.6956 54.2791 63.2192 57.0035C56.7429 59.7279 49.6986 61.09 42.0864 61.09C38.6589 61.09 35.1517 60.7719 31.5648 60.1355C26.6228 63.6355 21.083 66.1809 14.9454 67.7718C13.5107 68.1297 11.7969 68.4479 9.80421 68.7263H9.62486C9.18646 68.7263 8.77796 68.5672 8.39934 68.249C8.02072 67.9309 7.79156 67.5133 7.71185 66.9962C7.67199 66.8769 7.65207 66.7476 7.65207 66.6084C7.65207 66.4692 7.66203 66.34 7.68196 66.2207C7.70188 66.1013 7.74174 65.982 7.80152 65.8627L7.95097 65.5644L8.16021 65.2363L8.39934 64.938L8.66836 64.6397L8.90748 64.3713C9.10676 64.1326 9.56508 63.6355 10.2825 62.8798C10.9998 62.1241 11.518 61.5375 11.8368 61.1199C12.1556 60.7023 12.604 60.1256 13.1819 59.3898C13.7598 58.654 14.258 57.8884 14.6764 57.0929C15.0949 56.2975 15.5034 55.4225 15.9019 54.468C10.96 51.6044 7.07418 48.0846 4.24451 43.9085C1.41484 39.7324 0 35.2779 0 30.545C0 25.0167 1.87316 19.906 5.61949 15.2129C9.36581 10.5197 14.4771 6.81098 20.9535 4.08659C27.4299 1.3622 34.4742 0 42.0864 0ZM91.227 69.7405C91.6255 70.695 92.034 71.57 92.4525 72.3655C92.871 73.1609 93.3691 73.9265 93.947 74.6623C94.5249 75.3981 94.9733 75.9748 95.2921 76.3924C95.611 76.81 96.1291 77.3966 96.8465 78.1523C97.5638 78.908 98.0222 79.4051 98.2214 79.6438C98.2613 79.6835 98.341 79.773 98.4606 79.9122C98.5801 80.0514 98.6698 80.1509 98.7296 80.2105C98.7894 80.2702 98.8691 80.3696 98.9687 80.5088C99.0683 80.648 99.1381 80.7574 99.1779 80.8369L99.3274 81.1352L99.447 81.4932L99.4769 81.881L99.4171 82.2687C99.2975 82.8255 99.0385 83.263 98.6399 83.5812C98.2414 83.8994 97.803 84.0386 97.3247 83.9988C95.332 83.7204 93.6182 83.4022 92.1835 83.0443C86.0459 81.4534 80.5061 78.908 75.5641 75.408C71.9772 76.0444 68.47 76.3626 65.0426 76.3626C54.242 76.3626 44.8363 73.7376 36.8256 68.4877C39.1371 68.6468 40.8907 68.7263 42.0864 68.7263C48.5029 68.7263 54.6605 67.8314 60.5589 66.0417C66.4574 64.2519 71.7182 61.6866 76.3413 58.3458C81.3231 54.6867 85.1492 50.4709 87.8194 45.6982C90.4897 40.9256 91.8248 35.8745 91.8248 30.545C91.8248 27.4826 91.3665 24.4599 90.4498 21.477C95.591 24.3008 99.6562 27.8405 102.645 32.0961C105.634 36.3518 107.129 40.9256 107.129 45.8175C107.129 50.5902 105.714 55.0546 102.884 59.2108C100.055 63.367 96.1689 66.8769 91.227 69.7405Z" fill="#0289FF"/>
</svg>
