<svg width="134" height="40" viewBox="0 0 134 40" fill="none" xmlns="http://www.w3.org/2000/svg">
<path d="M61.905 30.324L64.3848 34.0711H67.1046V5L61.905 5.45295V30.324ZM62.9849 27.3592C62.0517 28.2377 61.1717 28.8965 60.3451 29.3357C59.5452 29.7749 58.6919 29.9945 57.7854 29.9945C56.8521 29.9945 56.0255 29.7475 55.3056 29.2534C54.6123 28.7318 54.079 28.0318 53.7057 27.1533C53.359 26.2749 53.1857 25.2729 53.1857 24.1474C53.1857 22.967 53.359 21.9375 53.7057 21.0591C54.079 20.1532 54.6123 19.4395 55.3056 18.9179C55.9988 18.3963 56.8388 18.1355 57.8253 18.1355C58.7053 18.1355 59.5452 18.3414 60.3451 18.7532C61.1717 19.1375 62.065 19.865 63.0249 20.9356L64.4648 17.312C64.0648 16.6806 63.4915 16.0767 62.7449 15.5002C62.025 14.9237 61.2117 14.457 60.3051 14.1002C59.4252 13.7433 58.572 13.5649 57.7454 13.5649C55.6655 13.5649 53.879 14.0178 52.3858 14.9237C50.9193 15.8021 49.786 17.0375 48.9861 18.6296C48.2128 20.1944 47.8262 22.0336 47.8262 24.1474C47.8262 26.2337 48.2128 28.0592 48.9861 29.624C49.786 31.1887 50.9193 32.4103 52.3858 33.2887C53.8523 34.1397 55.5855 34.5652 57.5854 34.5652C58.5186 34.5652 59.3852 34.4142 60.1852 34.1123C61.0118 33.8103 61.785 33.3848 62.505 32.8358C63.2249 32.2593 63.8782 31.6005 64.4648 30.8593L62.9849 27.3592Z" fill="#1D2746"/>
<path d="M81.0741 34.5652C78.9676 34.5652 77.141 34.1397 75.5945 33.2887C74.048 32.4377 72.8481 31.2299 71.9948 29.6651C71.1415 28.0729 70.7149 26.22 70.7149 24.1062C70.7416 21.965 71.1682 20.112 71.9948 18.5473C72.8481 16.9551 74.048 15.7335 75.5945 14.8825C77.1677 14.0041 78.9942 13.5649 81.0741 13.5649C83.2072 13.5649 85.0337 13.9904 86.5536 14.8413C88.1001 15.6923 89.3 16.9002 90.1533 18.4649C91.0066 20.0297 91.4332 21.8826 91.4332 24.0239C91.4332 26.1376 91.0066 27.9906 90.1533 29.5828C89.3 31.175 88.1001 32.4103 86.5536 33.2887C85.0071 34.1397 83.1805 34.5652 81.0741 34.5652ZM81.1141 29.9945C82.1006 29.9945 82.9539 29.7338 83.6738 29.2122C84.4204 28.6906 85.0071 27.9769 85.4337 27.071C85.8603 26.1651 86.0736 25.1494 86.0736 24.0239C86.0736 22.8709 85.8603 21.8552 85.4337 20.9767C85.0071 20.0983 84.4204 19.412 83.6738 18.9179C82.9272 18.3963 82.0606 18.1355 81.0741 18.1355C80.1141 18.1355 79.2475 18.3963 78.4743 18.9179C77.7277 19.4395 77.141 20.1532 76.7144 21.0591C76.2878 21.9375 76.0745 22.9533 76.0745 24.1062C76.0745 25.2592 76.2878 26.2749 76.7144 27.1533C77.141 28.0318 77.741 28.7318 78.5143 29.2534C79.2875 29.7475 80.1541 29.9945 81.1141 29.9945Z" fill="#1D2746"/>
<path d="M108.967 28.6357C108.034 29.0749 107.154 29.4181 106.327 29.6651C105.501 29.8847 104.661 29.9945 103.807 29.9945C102.848 29.9945 101.981 29.7475 101.208 29.2534C100.434 28.7318 99.8345 28.0318 99.4079 27.1533C98.9812 26.2749 98.7679 25.2592 98.7679 24.1062C98.7679 22.9533 98.9812 21.9375 99.4079 21.0591C99.8345 20.1532 100.421 19.4395 101.168 18.9179C101.941 18.3963 102.808 18.1355 103.767 18.1355C104.674 18.1355 105.527 18.2591 106.327 18.5061C107.154 18.7257 108.034 19.0551 108.967 19.4944L110.447 15.6649C109.807 15.1982 109.06 14.8139 108.207 14.5119C107.381 14.21 106.567 13.9766 105.767 13.8119C104.967 13.6472 104.287 13.5649 103.727 13.5649C101.648 13.5649 99.8345 14.0041 98.2879 14.8825C96.7414 15.7335 95.5415 16.9551 94.6882 18.5473C93.8616 20.112 93.435 21.965 93.4083 24.1062C93.4083 26.22 93.835 28.0729 94.6882 29.6651C95.5415 31.2299 96.7414 32.4377 98.2879 33.2887C99.8345 34.1397 101.648 34.5652 103.727 34.5652C104.287 34.5652 104.967 34.4966 105.767 34.3593C106.567 34.2221 107.394 34.0025 108.247 33.7005C109.127 33.3711 109.86 32.973 110.447 32.5064L108.967 28.6357Z" fill="#1D2746"/>
<path d="M111.753 18.2179H114.753V34.0711H120.032V18.2179H125.312L123.672 14.1825H120.032V13.4001C120.032 12.3295 120.232 11.4648 120.632 10.806C121.059 10.1197 121.712 9.77655 122.592 9.77655C122.912 9.77655 123.245 9.83146 123.592 9.94126C123.965 10.0236 124.352 10.1609 124.752 10.353L126.232 6.4412C125.965 6.19414 125.605 5.97453 125.152 5.78237C124.725 5.59021 124.259 5.43923 123.752 5.32942C123.245 5.21961 122.779 5.16471 122.352 5.16471C120.752 5.16471 119.392 5.46668 118.273 6.07061C117.153 6.67454 116.286 7.53926 115.673 8.66477C115.059 9.76283 114.753 11.0805 114.753 12.6178V14.1825H111.793L111.753 18.2179Z" fill="#1D2746"/>
<path d="M133.673 34.0711V14.1002H128.434V34.0711H133.673ZM131.033 11.3001C131.833 11.3001 132.513 11.0119 133.073 10.4354C133.633 9.83146 133.913 9.10399 133.913 8.253C133.913 7.402 133.62 6.68827 133.033 6.11179C132.473 5.5353 131.793 5.24706 130.993 5.24706C130.193 5.24706 129.513 5.5353 128.954 6.11179C128.394 6.68827 128.114 7.402 128.114 8.253C128.114 9.10399 128.394 9.83146 128.954 10.4354C129.513 11.0119 130.207 11.3001 131.033 11.3001Z" fill="#1D2746"/>
<path d="M40 20C40 31.0457 31.0457 40 20 40C8.9543 40 0 31.0457 0 20C0 8.9543 8.9543 0 20 0C31.0457 0 40 8.9543 40 20Z" fill="#15C590"/>
<path d="M29.6602 18.44L28.6802 22.62C27.8402 26.23 26.1802 27.69 23.0602 27.39C22.5602 27.35 22.0202 27.26 21.4402 27.12L19.7602 26.72C15.5902 25.73 14.3002 23.67 15.2802 19.49L16.2602 15.3C16.4602 14.45 16.7002 13.71 17.0002 13.1C18.1702 10.68 20.1602 10.03 23.5002 10.82L25.1702 11.21C29.3602 12.19 30.6402 14.26 29.6602 18.44Z" stroke="white" stroke-width="1.5" stroke-linecap="round" stroke-linejoin="round"/>
<path d="M23.0603 27.3901C22.4403 27.8101 21.6603 28.1601 20.7103 28.4701L19.1303 28.9901C15.1603 30.2701 13.0703 29.2001 11.7803 25.2301L10.5003 21.2801C9.22034 17.3101 10.2803 15.2101 14.2503 13.9301L15.8303 13.4101C16.2403 13.2801 16.6303 13.1701 17.0003 13.1001C16.7003 13.7101 16.4603 14.4501 16.2603 15.3001L15.2803 19.4901C14.3003 23.6701 15.5903 25.7301 19.7603 26.7201L21.4403 27.1201C22.0203 27.2601 22.5603 27.3501 23.0603 27.3901Z" stroke="white" stroke-width="1.5" stroke-linecap="round" stroke-linejoin="round"/>
<path d="M20.6396 16.5298L25.4896 17.7598" stroke="white" stroke-width="1.5" stroke-linecap="round" stroke-linejoin="round"/>
<path d="M19.6602 20.3999L22.5602 21.1399" stroke="white" stroke-width="1.5" stroke-linecap="round" stroke-linejoin="round"/>
</svg>
