<svg width="116" height="111" viewBox="0 0 116 111" fill="none" xmlns="http://www.w3.org/2000/svg">
<path d="M1.85795 3.7159C2.88407 3.7159 3.7159 2.88407 3.7159 1.85795C3.7159 0.831833 2.88407 0 1.85795 0C0.831833 0 0 0.831833 0 1.85795C0 2.88407 0.831833 3.7159 1.85795 3.7159Z" fill="white"/>
<path d="M31.7916 1.87672C31.7916 2.2479 31.6816 2.61074 31.4754 2.91937C31.2691 3.22799 30.976 3.46854 30.6331 3.61058C30.2902 3.75263 29.9128 3.78979 29.5488 3.71738C29.1847 3.64496 28.8503 3.46622 28.5879 3.20376C28.3254 2.9413 28.1467 2.6069 28.0743 2.24285C28.0019 1.8788 28.039 1.50146 28.1811 1.15853C28.3231 0.815604 28.5637 0.522501 28.8723 0.316284C29.1809 0.110068 29.5437 0 29.9149 0C30.4127 0 30.89 0.197725 31.242 0.549678C31.5939 0.901631 31.7916 1.37898 31.7916 1.87672Z" fill="white"/>
<path d="M58.0093 3.7159C59.0354 3.7159 59.8673 2.88407 59.8673 1.85795C59.8673 0.831833 59.0354 0 58.0093 0C56.9832 0 56.1514 0.831833 56.1514 1.85795C56.1514 2.88407 56.9832 3.7159 58.0093 3.7159Z" fill="white"/>
<path d="M86.0663 3.7159C87.0924 3.7159 87.9243 2.88407 87.9243 1.85795C87.9243 0.831833 87.0924 0 86.0663 0C85.0402 0 84.2084 0.831833 84.2084 1.85795C84.2084 2.88407 85.0402 3.7159 86.0663 3.7159Z" fill="white"/>
<path d="M114.142 3.7159C115.168 3.7159 116 2.88407 116 1.85795C116 0.831833 115.168 0 114.142 0C113.116 0 112.284 0.831833 112.284 1.85795C112.284 2.88407 113.116 3.7159 114.142 3.7159Z" fill="white"/>
<path d="M15.8958 25.1106C16.9219 25.1106 17.7537 24.2787 17.7537 23.2526C17.7537 22.2265 16.9219 21.3947 15.8958 21.3947C14.8697 21.3947 14.0378 22.2265 14.0378 23.2526C14.0378 24.2787 14.8697 25.1106 15.8958 25.1106Z" fill="white"/>
<path d="M45.8295 23.2526C45.8295 23.7503 45.6318 24.2277 45.2798 24.5796C44.9279 24.9316 44.4505 25.1293 43.9528 25.1293C43.455 25.1293 42.9777 24.9316 42.6257 24.5796C42.2738 24.2277 42.076 23.7503 42.076 23.2526C42.076 22.7548 42.2738 22.2775 42.6257 21.9255C42.9777 21.5736 43.455 21.3759 43.9528 21.3759C44.4505 21.3759 44.9279 21.5736 45.2798 21.9255C45.6318 22.2775 45.8295 22.7548 45.8295 23.2526Z" fill="white"/>
<path d="M72.0285 25.1106C73.0546 25.1106 73.8864 24.2787 73.8864 23.2526C73.8864 22.2265 73.0546 21.3947 72.0285 21.3947C71.0024 21.3947 70.1705 22.2265 70.1705 23.2526C70.1705 24.2787 71.0024 25.1106 72.0285 25.1106Z" fill="white"/>
<path d="M100.104 25.1106C101.13 25.1106 101.962 24.2787 101.962 23.2526C101.962 22.2265 101.13 21.3947 100.104 21.3947C99.0781 21.3947 98.2462 22.2265 98.2462 23.2526C98.2462 24.2787 99.0781 25.1106 100.104 25.1106Z" fill="white"/>
<path d="M1.85795 46.5988C2.88407 46.5988 3.7159 45.767 3.7159 44.7409C3.7159 43.7148 2.88407 42.8829 1.85795 42.8829C0.831833 42.8829 0 43.7148 0 44.7409C0 45.767 0.831833 46.5988 1.85795 46.5988Z" fill="white"/>
<path d="M31.7916 44.741C31.7916 45.1122 31.6816 45.475 31.4754 45.7836C31.2691 46.0923 30.976 46.3328 30.6331 46.4748C30.2902 46.6169 29.9128 46.654 29.5488 46.5816C29.1847 46.5092 28.8503 46.3305 28.5879 46.068C28.3254 45.8056 28.1467 45.4712 28.0743 45.1071C28.0019 44.7431 28.039 44.3657 28.1811 44.0228C28.3231 43.6799 28.5637 43.3868 28.8723 43.1805C29.1809 42.9743 29.5437 42.8643 29.9149 42.8643C30.4127 42.8643 30.89 43.062 31.242 43.4139C31.5939 43.7659 31.7916 44.2432 31.7916 44.741Z" fill="white"/>
<path d="M58.0093 46.5988C59.0354 46.5988 59.8673 45.767 59.8673 44.7409C59.8673 43.7148 59.0354 42.8829 58.0093 42.8829C56.9832 42.8829 56.1514 43.7148 56.1514 44.7409C56.1514 45.767 56.9832 46.5988 58.0093 46.5988Z" fill="white"/>
<path d="M86.0663 46.5988C87.0924 46.5988 87.9243 45.767 87.9243 44.7409C87.9243 43.7148 87.0924 42.8829 86.0663 42.8829C85.0402 42.8829 84.2084 43.7148 84.2084 44.7409C84.2084 45.767 85.0402 46.5988 86.0663 46.5988Z" fill="white"/>
<path d="M114.142 46.5988C115.168 46.5988 116 45.767 116 44.7409C116 43.7148 115.168 42.8829 114.142 42.8829C113.116 42.8829 112.284 43.7148 112.284 44.7409C112.284 45.767 113.116 46.5988 114.142 46.5988Z" fill="white"/>
<path d="M15.8958 67.9747C16.9219 67.9747 17.7537 67.1429 17.7537 66.1167C17.7537 65.0906 16.9219 64.2588 15.8958 64.2588C14.8697 64.2588 14.0378 65.0906 14.0378 66.1167C14.0378 67.1429 14.8697 67.9747 15.8958 67.9747Z" fill="white"/>
<path d="M45.8295 66.1167C45.8295 66.4879 45.7194 66.8507 45.5132 67.1594C45.307 67.468 45.0139 67.7085 44.671 67.8506C44.328 67.9926 43.9507 68.0298 43.5866 67.9574C43.2226 67.885 42.8882 67.7062 42.6257 67.4438C42.3633 67.1813 42.1845 66.8469 42.1121 66.4828C42.0397 66.1188 42.0769 65.7414 42.2189 65.3985C42.361 65.0556 42.6015 64.7625 42.9101 64.5563C43.2187 64.3501 43.5816 64.24 43.9528 64.24C44.4505 64.24 44.9279 64.4377 45.2798 64.7897C45.6318 65.1416 45.8295 65.619 45.8295 66.1167Z" fill="white"/>
<path d="M72.0285 67.9747C73.0546 67.9747 73.8864 67.1429 73.8864 66.1167C73.8864 65.0906 73.0546 64.2588 72.0285 64.2588C71.0024 64.2588 70.1705 65.0906 70.1705 66.1167C70.1705 67.1429 71.0024 67.9747 72.0285 67.9747Z" fill="white"/>
<path d="M100.104 67.9747C101.13 67.9747 101.962 67.1429 101.962 66.1167C101.962 65.0906 101.13 64.2588 100.104 64.2588C99.0781 64.2588 98.2462 65.0906 98.2462 66.1167C98.2462 67.1429 99.0781 67.9747 100.104 67.9747Z" fill="white"/>
<path d="M1.85795 89.4631C2.88407 89.4631 3.7159 88.6313 3.7159 87.6051C3.7159 86.579 2.88407 85.7472 1.85795 85.7472C0.831833 85.7472 0 86.579 0 87.6051C0 88.6313 0.831833 89.4631 1.85795 89.4631Z" fill="white"/>
<path d="M31.7916 87.6054C31.7916 87.9765 31.6816 88.3394 31.4754 88.648C31.2691 88.9566 30.976 89.1972 30.6331 89.3392C30.2902 89.4813 29.9128 89.5184 29.5488 89.446C29.1847 89.3736 28.8503 89.1949 28.5879 88.9324C28.3254 88.6699 28.1467 88.3355 28.0743 87.9715C28.0019 87.6074 28.039 87.2301 28.1811 86.8872C28.3231 86.5442 28.5637 86.2511 28.8723 86.0449C29.1809 85.8387 29.5437 85.7286 29.9149 85.7286C30.4127 85.7286 30.89 85.9264 31.242 86.2783C31.5939 86.6303 31.7916 87.1076 31.7916 87.6054Z" fill="white"/>
<path d="M58.0093 89.4631C59.0354 89.4631 59.8673 88.6313 59.8673 87.6051C59.8673 86.579 59.0354 85.7472 58.0093 85.7472C56.9832 85.7472 56.1514 86.579 56.1514 87.6051C56.1514 88.6313 56.9832 89.4631 58.0093 89.4631Z" fill="white"/>
<path d="M86.0663 89.4631C87.0924 89.4631 87.9243 88.6313 87.9243 87.6051C87.9243 86.579 87.0924 85.7472 86.0663 85.7472C85.0402 85.7472 84.2084 86.579 84.2084 87.6051C84.2084 88.6313 85.0402 89.4631 86.0663 89.4631Z" fill="white"/>
<path d="M114.142 89.4631C115.168 89.4631 116 88.6313 116 87.6051C116 86.579 115.168 85.7472 114.142 85.7472C113.116 85.7472 112.284 86.579 112.284 87.6051C112.284 88.6313 113.116 89.4631 114.142 89.4631Z" fill="white"/>
<path d="M15.8958 110.839C16.9219 110.839 17.7537 110.007 17.7537 108.981C17.7537 107.955 16.9219 107.123 15.8958 107.123C14.8697 107.123 14.0378 107.955 14.0378 108.981C14.0378 110.007 14.8697 110.839 15.8958 110.839Z" fill="white"/>
<path d="M45.8295 108.981C45.8295 109.352 45.7194 109.715 45.5132 110.024C45.307 110.332 45.0139 110.573 44.671 110.715C44.328 110.857 43.9507 110.894 43.5866 110.822C43.2226 110.749 42.8882 110.57 42.6257 110.308C42.3633 110.046 42.1845 109.711 42.1121 109.347C42.0397 108.983 42.0769 108.606 42.2189 108.263C42.361 107.92 42.6015 107.627 42.9101 107.421C43.2187 107.214 43.5816 107.104 43.9528 107.104C44.4505 107.104 44.9279 107.302 45.2798 107.654C45.6318 108.006 45.8295 108.483 45.8295 108.981Z" fill="white"/>
<path d="M72.0285 110.839C73.0546 110.839 73.8864 110.007 73.8864 108.981C73.8864 107.955 73.0546 107.123 72.0285 107.123C71.0024 107.123 70.1705 107.955 70.1705 108.981C70.1705 110.007 71.0024 110.839 72.0285 110.839Z" fill="white"/>
<path d="M100.104 110.839C101.13 110.839 101.962 110.007 101.962 108.981C101.962 107.955 101.13 107.123 100.104 107.123C99.0781 107.123 98.2462 107.955 98.2462 108.981C98.2462 110.007 99.0781 110.839 100.104 110.839Z" fill="white"/>
</svg>
