<svg width="87" height="82" viewBox="0 0 87 82" fill="none" xmlns="http://www.w3.org/2000/svg">
<path d="M74.3829 40.0702C73.5332 34.5307 71.2108 29.3359 67.6688 25.0521C64.1268 20.7683 59.5012 17.5601 54.2965 15.7773L44.7876 44.7812L74.3829 40.0702Z" fill="#E0E0E0"/>
<path d="M37.9074 51.181L47.4086 22.13C43.0346 20.6413 38.3835 20.203 33.8167 20.8493C29.2499 21.4956 24.8906 23.2089 21.0776 25.8562C17.2647 28.5034 14.1009 32.0133 11.8322 36.1128C9.5635 40.2123 8.25106 44.791 7.99692 49.4929C7.99692 50.0504 7.94311 50.6078 7.94311 51.1653C7.91419 55.406 8.74796 59.6065 10.3916 63.5008C12.0352 67.3951 14.4529 70.8983 17.4913 73.7883C20.5298 76.6783 24.1229 78.8921 28.0429 80.2896C31.9629 81.687 36.1243 82.2376 40.2635 81.9064C44.4027 81.5751 48.4295 80.3694 52.0886 78.3655C55.7477 76.3615 58.9593 73.6032 61.5201 70.2651C64.0809 66.927 65.935 63.0821 66.9648 58.9738C67.9946 54.8656 68.1778 50.5837 67.5026 46.3994L37.9074 51.181Z" fill="#E0E0E0"/>
<path d="M77.1426 34.4802L47.5474 39.2854L57.0563 10.2344C62.2548 12.0134 66.8762 15.2145 70.4177 19.4894C73.9592 23.7642 76.2852 28.9492 77.1426 34.4802Z" fill="#FFD600"/>
<path d="M40.6669 45.6216L35.8855 75.8346C28.8599 74.6715 22.4686 70.9933 17.8548 65.458C13.2411 59.9226 10.7058 52.8913 10.7026 45.6216C10.7026 45.0641 10.7026 44.5067 10.7488 43.9492L40.6669 45.6216Z" fill="#57A2FF"/>
<path d="M50.1681 16.61L40.6668 45.661L23.1479 20.8106C27.0035 17.9733 31.4641 16.1127 36.1621 15.3823C40.86 14.652 45.6606 15.0728 50.1681 16.61Z" fill="#CF386A"/>
<path d="M23.1481 20.8105L40.6669 45.6217L10.7642 43.9493C11.007 39.393 12.2453 34.95 14.3882 30.9461C16.5311 26.9422 19.5242 23.4791 23.1481 20.8105Z" fill="#D6E9FF"/>
<path d="M70.2624 40.856C70.996 45.6322 70.612 50.518 69.1417 55.1134C67.6714 59.7089 65.1567 63.8836 61.8034 67.2956C58.4501 70.7077 54.3534 73.2603 49.8486 74.7446C45.3439 76.2288 40.559 76.6024 35.8857 75.8349L40.6671 45.6219L70.2624 40.856Z" fill="white"/>
<path d="M40.6668 45.6217L50.1681 16.61C45.6606 15.0728 40.86 14.652 36.1621 15.3823C31.4641 16.1127 27.0035 17.9733 23.1479 20.8106L40.6668 45.6217Z" stroke="#402318" stroke-width="3" stroke-linecap="round" stroke-linejoin="round"/>
<path d="M40.6671 45.6219L35.8857 75.8349C40.5606 76.6113 45.349 76.2439 49.8578 74.7629C54.3666 73.2819 58.4671 70.7294 61.8225 67.3152C65.1779 63.9011 67.6925 59.7226 69.1596 55.1229C70.6268 50.5233 71.0047 45.6338 70.2624 40.856L40.6671 45.6219Z" stroke="#402318" stroke-width="3" stroke-linecap="round" stroke-linejoin="round"/>
<path d="M77.1426 34.4802C76.2852 28.9492 73.9592 23.7642 70.4177 19.4894C66.8762 15.2145 62.2548 12.0134 57.0563 10.2344L47.5474 39.2854L77.1426 34.4802Z" stroke="#402318" stroke-width="3" stroke-linecap="round" stroke-linejoin="round"/>
<path d="M23.1481 20.8105C19.5242 23.4791 16.5311 26.9422 14.3882 30.9461C12.2453 34.95 11.007 39.393 10.7642 43.9493L40.6669 45.6217" stroke="#402318" stroke-width="3" stroke-linecap="round" stroke-linejoin="round"/>
<path d="M10.7639 43.9492C10.7639 44.5067 10.7178 45.0641 10.7178 45.6216C10.7204 52.889 13.2534 59.9185 17.8641 65.4535C22.4748 70.9885 28.8625 74.6681 35.8853 75.8346" stroke="#402318" stroke-width="3" stroke-linecap="round" stroke-linejoin="round"/>
<path d="M51.2137 54.29C51.2324 53.9279 51.1792 53.5657 51.0575 53.2251C50.9358 52.8845 50.748 52.5725 50.5054 52.3078C50.2628 52.0431 49.9703 51.8312 49.6455 51.6847C49.3208 51.5383 48.9704 51.4604 48.6155 51.4556C48.2551 51.4613 47.8995 51.5415 47.5703 51.6914C47.2411 51.8414 46.9451 52.0579 46.7001 52.3279C46.4551 52.598 46.2663 52.9159 46.1449 53.2626C46.0236 53.6093 45.9723 53.9775 45.9942 54.345C45.9755 54.706 46.0284 55.0672 46.1497 55.4069C46.2711 55.7465 46.4583 56.0577 46.7002 56.3216C46.9421 56.5856 47.2337 56.7969 47.5576 56.943C47.8814 57.089 48.2308 57.1668 48.5847 57.1715C48.9454 57.168 49.3016 57.0895 49.6317 56.9409C49.9618 56.7923 50.2588 56.5766 50.5047 56.3071C50.7506 56.0376 50.9403 55.7197 51.0622 55.373C51.184 55.0262 51.2356 54.6578 51.2137 54.29ZM48.5847 53.3007C48.9537 53.3007 49.2381 53.7482 49.2381 54.345C49.2381 54.8161 49.0459 55.3264 48.6155 55.3264C48.185 55.3264 47.9621 54.8946 47.9621 54.29C47.9621 53.8111 48.1542 53.3007 48.5847 53.3007Z" fill="#402318"/>
<path d="M56.2019 53.1515C56.2019 53.0281 56.1779 52.906 56.1315 52.7921C56.085 52.6782 56.017 52.5748 55.9312 52.488C55.8455 52.4011 55.7437 52.3325 55.6318 52.286C55.52 52.2395 55.4002 52.2161 55.2794 52.2171C55.1275 52.2105 54.9766 52.2447 54.8417 52.3164C54.7068 52.388 54.5926 52.4946 54.5107 52.6254L48.361 61.2622C48.234 61.4313 48.1639 61.6379 48.1612 61.851C48.1601 61.9737 48.1831 62.0953 48.2288 62.2087C48.2745 62.3221 48.342 62.425 48.4272 62.5113C48.5125 62.5977 48.6138 62.6657 48.7252 62.7115C48.8366 62.7572 48.9559 62.7796 49.0759 62.7775C49.2269 62.7783 49.3757 62.7415 49.5097 62.6704C49.6436 62.5993 49.7586 62.4959 49.8446 62.3693L55.9943 53.7325C56.1198 53.5649 56.1922 53.3622 56.2019 53.1515Z" fill="#402318"/>
<path d="M55.5954 57.6978C55.2354 57.7024 54.88 57.7816 54.5509 57.9307C54.2217 58.0798 53.9256 58.2956 53.6805 58.565C53.4354 58.8345 53.2464 59.1519 53.125 59.4981C53.0036 59.8444 52.9523 60.2122 52.9742 60.5793C52.9555 60.941 53.0086 61.3028 53.1304 61.643C53.2522 61.9832 53.4401 62.2947 53.6829 62.5588C53.9256 62.8228 54.2181 63.034 54.5429 63.1796C54.8676 63.3252 55.2178 63.4021 55.5724 63.4059C55.9324 63.4012 56.2878 63.322 56.617 63.1729C56.9461 63.0238 57.2422 62.808 57.4873 62.5386C57.7324 62.2692 57.9214 61.9517 58.0428 61.6055C58.1642 61.2593 58.2156 60.8914 58.1937 60.5243C58.2124 60.1626 58.1592 59.8008 58.0374 59.4606C57.9156 59.1204 57.7277 58.8089 57.485 58.5449C57.2422 58.2808 56.9497 58.0696 56.625 57.924C56.3003 57.7785 55.9501 57.7015 55.5954 57.6978ZM55.5954 61.5608C55.2265 61.5608 54.942 61.1289 54.942 60.5243C54.942 60.0532 55.1419 59.5429 55.5724 59.5429C56.0029 59.5429 56.2258 59.9826 56.2258 60.5793C56.2258 61.0504 56.0259 61.5608 55.5954 61.5608Z" fill="#402318"/>
<path d="M2.03939 22.6168C2.04775 22.4752 2.02775 22.3333 1.98061 22.1997C1.93347 22.0662 1.86018 21.9439 1.76522 21.8403C1.67026 21.7367 1.55562 21.654 1.4283 21.5971C1.30097 21.5403 1.16365 21.5106 1.0247 21.5098C0.883693 21.5116 0.744529 21.5427 0.615703 21.6013C0.486877 21.6599 0.37109 21.7447 0.275412 21.8505C0.179735 21.9563 0.106173 22.0809 0.0592187 22.2167C0.0122642 22.3525 -0.00709792 22.4967 0.00231427 22.6404C-0.0049655 22.7814 0.0158371 22.9225 0.0634638 23.0551C0.111091 23.1877 0.184552 23.309 0.279404 23.4118C0.374256 23.5145 0.488529 23.5965 0.61531 23.6529C0.742091 23.7093 0.878746 23.7388 1.01701 23.7396C1.15732 23.7378 1.29581 23.7068 1.42409 23.6487C1.55237 23.5906 1.66779 23.5066 1.76336 23.4016C1.85893 23.2967 1.93266 23.173 1.98011 23.0381C2.02755 22.9032 2.04772 22.7599 2.03939 22.6168ZM1.01701 22.2321C1.16306 22.2321 1.27068 22.4048 1.27068 22.6404C1.27068 22.8759 1.19381 23.0251 1.0247 23.0251C0.855581 23.0251 0.771023 22.8524 0.771023 22.6168C0.771023 22.3813 0.847894 22.2321 1.01701 22.2321Z" fill="#402318"/>
<path d="M3.9924 22.1695C3.99039 22.073 3.95144 21.9811 3.8839 21.9136C3.81636 21.8461 3.72561 21.8083 3.63111 21.8083C3.57217 21.8062 3.5137 21.8196 3.46123 21.847C3.40876 21.8745 3.36403 21.9152 3.33131 21.9654L0.909879 25.3415C0.862841 25.408 0.836097 25.4873 0.833008 25.5692C0.833008 25.6671 0.871072 25.761 0.938828 25.8302C1.00658 25.8994 1.09848 25.9383 1.1943 25.9383C1.25475 25.938 1.31424 25.9229 1.36776 25.8942C1.42127 25.8655 1.46724 25.8241 1.50178 25.7734L3.91553 22.3972C3.9659 22.3325 3.99304 22.2521 3.9924 22.1695Z" fill="#402318"/>
<path d="M3.7537 23.9434C3.61303 23.9463 3.47438 23.9782 3.34607 24.0371C3.21775 24.0961 3.10241 24.1809 3.00694 24.2865C2.91148 24.392 2.83786 24.5162 2.7905 24.6515C2.74314 24.7868 2.72301 24.9305 2.73132 25.074C2.72406 25.2154 2.74483 25.3568 2.79237 25.4899C2.83991 25.6229 2.91325 25.7447 3.008 25.8481C3.10275 25.9515 3.21695 26.0342 3.34376 26.0915C3.47057 26.1487 3.60739 26.1792 3.74601 26.1811C3.88701 26.1793 4.02618 26.1481 4.155 26.0895C4.28383 26.031 4.39962 25.9462 4.49529 25.8404C4.59097 25.7346 4.66453 25.6099 4.71149 25.4741C4.75844 25.3383 4.7778 25.1942 4.76839 25.0504C4.77675 24.9088 4.75675 24.7668 4.70961 24.6333C4.66247 24.4998 4.58919 24.3775 4.49422 24.2739C4.39926 24.1703 4.28462 24.0876 4.1573 24.0307C4.02997 23.9739 3.89265 23.9442 3.7537 23.9434ZM3.7537 25.4587C3.61533 25.4587 3.50002 25.286 3.50002 25.0504C3.50002 24.8149 3.57689 24.6657 3.74601 24.6657C3.91513 24.6657 3.99968 24.8463 3.99968 25.074C3.99968 25.3017 3.92281 25.4587 3.7537 25.4587Z" fill="#402318"/>
<path d="M2.03919 70.9746C2.04226 70.8361 2.01833 70.6984 1.9688 70.5695C1.91928 70.4406 1.84514 70.323 1.75071 70.2237C1.65629 70.1243 1.54345 70.0451 1.41878 69.9907C1.2941 69.9363 1.16007 69.9077 1.0245 69.9067C0.749822 69.9303 0.493821 70.0583 0.307233 70.2656C0.120646 70.4728 0.0170898 70.7441 0.0170898 71.0256C0.0170898 71.3071 0.120646 71.5784 0.307233 71.7856C0.493821 71.9929 0.749822 72.1209 1.0245 72.1444C1.16801 72.1408 1.30926 72.107 1.43943 72.0452C1.5696 71.9834 1.6859 71.8948 1.7811 71.785C1.8763 71.6753 1.94834 71.5467 1.99275 71.4072C2.03715 71.2678 2.05296 71.1205 2.03919 70.9746ZM1.01681 70.5898C1.16287 70.5898 1.27049 70.7626 1.27049 70.9981C1.27049 71.2337 1.19361 71.3828 1.0245 71.3828C0.855383 71.3828 0.770825 71.2101 0.770825 70.9746C0.770825 70.739 0.847696 70.5898 1.01681 70.5898Z" fill="#402318"/>
<path d="M3.9924 70.5269C3.99039 70.4304 3.95144 70.3385 3.8839 70.271C3.81636 70.2035 3.72561 70.1657 3.63111 70.1657C3.57217 70.1636 3.5137 70.177 3.46123 70.2045C3.40876 70.2319 3.36403 70.2727 3.33131 70.3228L0.909879 73.699C0.862841 73.7655 0.836097 73.8447 0.833008 73.9267C0.833008 74.0245 0.871072 74.1184 0.938828 74.1876C1.00658 74.2568 1.09848 74.2957 1.1943 74.2957C1.25475 74.2954 1.31424 74.2803 1.36776 74.2516C1.42127 74.2229 1.46724 74.1815 1.50178 74.1308L3.91553 70.7625C3.96593 70.6948 3.99297 70.612 3.9924 70.5269Z" fill="#402318"/>
<path d="M3.75339 72.3094C3.53455 72.2936 3.31614 72.3456 3.12663 72.4585C2.93712 72.5713 2.78531 72.7399 2.69099 72.9422C2.59668 73.1445 2.56423 73.3712 2.59788 73.5926C2.63154 73.814 2.72973 74.02 2.87966 74.1835C3.02959 74.3471 3.2243 74.4608 3.43839 74.5096C3.65249 74.5585 3.87604 74.5404 4.07989 74.4576C4.28374 74.3748 4.45844 74.2312 4.5812 74.0455C4.70396 73.8597 4.76908 73.6406 4.76808 73.4165C4.77644 73.2748 4.75644 73.1329 4.7093 72.9994C4.66216 72.8659 4.58888 72.7436 4.49391 72.64C4.39895 72.5364 4.28431 72.4536 4.15699 72.3968C4.02966 72.34 3.89234 72.3102 3.75339 72.3094ZM3.75339 73.8169C3.61502 73.8169 3.49971 73.652 3.49971 73.4165C3.49971 73.1809 3.57658 73.0318 3.7457 73.0318C3.91482 73.0318 3.99937 73.2045 3.99937 73.4322C3.99937 73.6599 3.9225 73.8326 3.75339 73.8326V73.8169Z" fill="#402318"/>
<path d="M37.5614 1.13473C37.5737 0.990513 37.5565 0.845265 37.5109 0.708205C37.4653 0.571146 37.3923 0.445269 37.2965 0.338567C37.2007 0.231864 37.0843 0.146666 36.9545 0.0883817C36.8248 0.0300975 36.6846 0 36.5429 0C36.4012 0 36.261 0.0300975 36.1313 0.0883817C36.0015 0.146666 35.8851 0.231864 35.7893 0.338567C35.6935 0.445269 35.6205 0.571146 35.5749 0.708205C35.5293 0.845265 35.5121 0.990513 35.5244 1.13473C35.5171 1.27576 35.5379 1.41683 35.5855 1.54941C35.6331 1.682 35.7066 1.80334 35.8014 1.90609C35.8963 2.00884 36.0106 2.09088 36.1373 2.14723C36.2641 2.20359 36.4008 2.23309 36.539 2.23396C36.6773 2.23196 36.8138 2.20176 36.9405 2.14512C37.0672 2.08848 37.1815 2.00655 37.2768 1.90415C37.372 1.80174 37.4463 1.68092 37.4951 1.54879C37.544 1.41666 37.5666 1.27588 37.5614 1.13473ZM36.539 0.75C36.6774 0.75 36.7927 0.922736 36.7927 1.15828C36.7927 1.39383 36.7159 1.54301 36.5467 1.54301C36.3776 1.54301 36.2931 1.37028 36.2931 1.13473C36.2931 0.899181 36.3699 0.75 36.539 0.75Z" fill="#402318"/>
<path d="M39.5139 0.68756C39.5119 0.591055 39.4729 0.499197 39.4054 0.43168C39.3378 0.364164 39.2471 0.326364 39.1526 0.326386C39.0937 0.324291 39.0352 0.337618 38.9827 0.365102C38.9302 0.392586 38.8855 0.433314 38.8528 0.483418L36.4314 3.85961C36.3843 3.92611 36.3576 4.00533 36.3545 4.08731C36.3545 4.18518 36.3926 4.27905 36.4603 4.34825C36.5281 4.41746 36.62 4.45634 36.7158 4.45634C36.7753 4.45685 36.834 4.442 36.8864 4.41318C36.9388 4.38436 36.9832 4.34249 37.0156 4.29145L39.437 0.915257C39.4874 0.850577 39.5145 0.770207 39.5139 0.68756Z" fill="#402318"/>
<path d="M39.2751 2.46924C39.1347 2.47111 38.9963 2.50203 38.868 2.56012C38.7397 2.61822 38.6243 2.70228 38.5287 2.80724C38.4331 2.91219 38.3594 3.03585 38.312 3.17074C38.2645 3.30563 38.2444 3.44894 38.2527 3.59202C38.2399 3.73658 38.2566 3.88227 38.3017 4.01993C38.3468 4.15759 38.4192 4.28423 38.5145 4.3919C38.6098 4.49957 38.7259 4.58593 38.8555 4.64555C38.985 4.70518 39.1253 4.73677 39.2674 4.73836C39.4084 4.73654 39.5475 4.7054 39.6764 4.64682C39.8052 4.58824 39.921 4.50346 40.0167 4.39765C40.1123 4.29184 40.1859 4.16723 40.2329 4.03141C40.2798 3.8956 40.2992 3.75144 40.2898 3.60772C40.3025 3.46354 40.2858 3.31821 40.2407 3.18097C40.1956 3.04373 40.123 2.91758 40.0276 2.81052C39.9322 2.70346 39.816 2.61784 39.6864 2.55908C39.5569 2.50033 39.4168 2.46974 39.2751 2.46924ZM39.2751 3.97675C39.129 3.97675 39.0214 3.81186 39.0214 3.56846C39.0214 3.32506 39.0983 3.18374 39.2674 3.18374C39.4365 3.18374 39.521 3.36432 39.521 3.59202C39.521 3.81972 39.4442 3.95319 39.2751 3.95319V3.97675Z" fill="#402318"/>
<path d="M84.2678 12.4801C84.2751 12.3387 84.2543 12.1973 84.2068 12.0643C84.1592 11.9312 84.0859 11.8094 83.9911 11.706C83.8964 11.6027 83.7822 11.5199 83.6554 11.4627C83.5286 11.4054 83.3918 11.375 83.2531 11.373C83.1144 11.379 82.9783 11.4132 82.8527 11.4735C82.727 11.5338 82.6144 11.6191 82.5214 11.7244C82.4284 11.8296 82.3568 11.9527 82.3109 12.0865C82.2649 12.2203 82.2455 12.3621 82.2538 12.5037C82.2466 12.6451 82.2673 12.7865 82.3149 12.9196C82.3624 13.0526 82.4358 13.1744 82.5305 13.2778C82.6252 13.3812 82.7395 13.4639 82.8663 13.5211C82.9931 13.5784 83.1299 13.6088 83.2685 13.6108C83.4072 13.6048 83.5434 13.5706 83.669 13.5103C83.7946 13.45 83.9072 13.3647 84.0003 13.2594C84.0933 13.1542 84.1648 13.0311 84.2108 12.8973C84.2567 12.7635 84.2761 12.6217 84.2678 12.4801ZM83.2378 12.0954C83.3838 12.0954 83.4991 12.2681 83.4991 12.5037C83.4991 12.7392 83.4223 12.8884 83.2531 12.8884C83.084 12.8884 82.9918 12.7157 82.9918 12.4801C82.9918 12.2446 83.0686 12.0954 83.2378 12.0954Z" fill="#402318"/>
<path d="M86.2128 12.04C86.2128 11.9421 86.1748 11.8483 86.107 11.7791C86.0392 11.7099 85.9474 11.671 85.8515 11.671C85.7919 11.6697 85.7329 11.6842 85.6804 11.7131C85.6279 11.742 85.5835 11.7843 85.5517 11.8359L83.138 15.2121C83.0876 15.2767 83.0605 15.3571 83.0611 15.4397C83.0601 15.4875 83.0685 15.5349 83.0859 15.5792C83.1033 15.6235 83.1293 15.6638 83.1623 15.6975C83.1954 15.7313 83.2348 15.7578 83.2782 15.7756C83.3215 15.7934 83.368 15.802 83.4147 15.8009C83.4745 15.8015 83.5336 15.7876 83.587 15.7603C83.6405 15.733 83.6868 15.6931 83.7222 15.6439L86.1436 12.2677C86.1884 12.2005 86.2125 12.1212 86.2128 12.04Z" fill="#402318"/>
<path d="M85.9826 13.8149C85.8412 13.8168 85.7018 13.8479 85.5725 13.9064C85.4433 13.9649 85.3271 14.0496 85.2308 14.1552C85.1345 14.2609 85.0602 14.3854 85.0124 14.5213C84.9645 14.6571 84.9442 14.8015 84.9525 14.9456C84.9452 15.087 84.966 15.2284 85.0136 15.3614C85.0611 15.4945 85.1344 15.6163 85.2292 15.7197C85.3239 15.823 85.4381 15.9058 85.5649 15.963C85.6918 16.0203 85.8286 16.0507 85.9672 16.0527C86.1065 16.0507 86.244 16.0202 86.3716 15.9632C86.4992 15.9062 86.6144 15.8237 86.7103 15.7205C86.8063 15.6174 86.8811 15.4957 86.9304 15.3626C86.9797 15.2296 87.0024 15.0878 86.9973 14.9456C87.0078 14.8023 86.9894 14.6583 86.9434 14.5225C86.8973 14.3867 86.8245 14.262 86.7294 14.156C86.6343 14.0501 86.519 13.9652 86.3906 13.9065C86.2621 13.8479 86.1233 13.8167 85.9826 13.8149ZM85.9826 15.3303C85.8365 15.3303 85.7212 15.1576 85.7212 14.922C85.7212 14.6865 85.8058 14.5373 85.9672 14.5373C86.1286 14.5373 86.2286 14.71 86.2286 14.9456C86.2286 15.1811 86.1517 15.3303 85.9826 15.3303Z" fill="#402318"/>
<path d="M20.3195 34.7165L9.5499 23.7085H6.11377" stroke="#402318" stroke-linecap="round" stroke-linejoin="round"/>
<path d="M66.6187 23.708L76.4043 13.7129H80.4247" stroke="#402318" stroke-linecap="round" stroke-linejoin="round"/>
<path d="M22.2566 59.896L10.2033 72.2073H6.11377" stroke="#402318" stroke-linecap="round" stroke-linejoin="round"/>
<path d="M37.9072 19.3897V6.04199" stroke="#402318" stroke-linecap="round" stroke-linejoin="round"/>
</svg>
