<svg width="75" height="83" viewBox="0 0 75 83" fill="none" xmlns="http://www.w3.org/2000/svg">
<path d="M49.747 6.22012C49.4908 6.11414 49.2158 6.06106 48.9385 6.06409H2.12776C1.56344 6.06409 1.02224 6.28826 0.623207 6.68729C0.224174 7.08633 0 7.62753 0 8.19185L0 75.4078C0.000978744 75.7928 0.106382 76.1703 0.304979 76.5001C0.347534 76.5639 0.382997 76.6206 0.432645 76.6845C2.4682 79.6633 5.35486 82.5003 7.09254 82.5003H53.9033C54.4676 82.5003 55.0088 82.2762 55.4078 81.8771C55.8069 81.4781 56.031 80.9369 56.031 80.3726V13.1708C56.031 11.9934 50.9173 6.22012 49.747 6.22012Z" fill="#E0E0E0"/>
<path d="M43.6546 13.1353H24.6182C23.4431 13.1353 22.4905 14.0879 22.4905 15.263V25.1926C22.4905 26.3677 23.4431 27.3203 24.6182 27.3203H43.6546C44.8297 27.3203 45.7824 26.3677 45.7824 25.1926V15.263C45.7824 14.0879 44.8297 13.1353 43.6546 13.1353Z" fill="white"/>
<path d="M55.5841 4.12779V71.3083C55.5841 71.8726 55.3599 72.4138 54.9609 72.8128C54.5618 73.2119 54.0206 73.4361 53.4563 73.4361H14.8091V2.00003H53.4563C53.7364 1.99849 54.014 2.05399 54.2719 2.16316C54.6603 2.32434 54.9922 2.59697 55.2257 2.94664C55.4593 3.2963 55.584 3.70732 55.5841 4.12779ZM45.7751 25.1926V15.2631C45.7751 14.6988 45.5509 14.1576 45.1519 13.7585C44.7529 13.3595 44.2117 13.1353 43.6473 13.1353H24.6181C24.0537 13.1353 23.5125 13.3595 23.1135 13.7585C22.7145 14.1576 22.4903 14.6988 22.4903 15.2631V25.1926C22.4903 25.7569 22.7145 26.2981 23.1135 26.6972C23.5125 27.0962 24.0537 27.3204 24.6181 27.3204H43.6473C43.9268 27.3204 44.2034 27.2653 44.4616 27.1584C44.7197 27.0515 44.9543 26.8948 45.1519 26.6972C45.3495 26.4996 45.5062 26.265 45.6131 26.0069C45.7201 25.7487 45.7751 25.472 45.7751 25.1926Z" fill="#FFD600"/>
<path d="M14.8093 2V73.436H6.65289C6.32377 73.4322 6.00003 73.352 5.70712 73.2019C5.41422 73.0517 5.16014 72.8357 4.96487 72.5707L4.83011 72.3863C4.63687 72.0546 4.53415 71.678 4.53223 71.2941V4.12776C4.53223 3.56344 4.7564 3.02224 5.15543 2.62321C5.55447 2.22417 6.09567 2 6.65999 2H14.8093Z" fill="#8C4D35"/>
<path d="M54.2724 2.15576C55.4427 2.15576 60.5777 7.92909 60.5777 9.10645V76.2869C60.5777 76.8513 60.3535 77.3925 59.9545 77.7915C59.5554 78.1905 59.0142 78.4147 58.4499 78.4147H11.6392C9.88023 78.4147 6.99357 75.6202 4.95801 72.5846C5.15548 72.8479 5.41135 73.0618 5.70548 73.2095C5.99961 73.3572 6.324 73.4346 6.65312 73.4357H53.4639C54.0282 73.4357 54.5694 73.2116 54.9684 72.8125C55.3674 72.4135 55.5916 71.8723 55.5916 71.308V4.12749C55.5915 3.70701 55.4668 3.296 55.2333 2.94633C54.9998 2.59667 54.6679 2.32404 54.2795 2.16285L54.2724 2.15576Z" fill="white"/>
<path d="M54.2722 2.16313C54.6605 2.32431 54.9924 2.59694 55.226 2.94661C55.4595 3.29627 55.5842 3.70728 55.5843 4.12776V71.3083C55.5843 71.8726 55.3601 72.4138 54.9611 72.8128C54.5621 73.2118 54.0209 73.436 53.4565 73.436H6.6458C6.31788 73.4311 5.99555 73.3504 5.70396 73.2003C5.41237 73.0502 5.15942 72.8347 4.96487 72.5707C4.916 72.5122 4.87099 72.4506 4.83011 72.3863C4.63687 72.0546 4.53415 71.678 4.53223 71.2941V4.12776C4.53223 3.56344 4.7564 3.02224 5.15543 2.62321C5.55447 2.22417 6.09567 2 6.65999 2H53.4707C53.7461 2.00037 54.0186 2.05583 54.2722 2.16313Z" stroke="#402318" stroke-width="3" stroke-linecap="round" stroke-linejoin="round"/>
<path d="M54.2719 2.15576C55.4422 2.15576 60.5772 7.92909 60.5772 9.10645V76.2869C60.5772 76.8513 60.353 77.3925 59.954 77.7915C59.5549 78.1905 59.0137 78.4147 58.4494 78.4147H11.6387C9.87973 78.4147 6.99307 75.6202 4.95751 72.5846L4.82275 72.4002" stroke="#402318" stroke-width="3" stroke-linecap="round" stroke-linejoin="round"/>
<path d="M14.8091 2V73.436" stroke="#402318" stroke-width="3" stroke-linecap="round" stroke-linejoin="round"/>
<path d="M43.6546 13.1353H24.6182C23.4431 13.1353 22.4905 14.0879 22.4905 15.263V25.1926C22.4905 26.3677 23.4431 27.3203 24.6182 27.3203H43.6546C44.8297 27.3203 45.7824 26.3677 45.7824 25.1926V15.263C45.7824 14.0879 44.8297 13.1353 43.6546 13.1353Z" stroke="#402318" stroke-width="3" stroke-linecap="round" stroke-linejoin="round"/>
<path d="M68.3935 17.9579C67.9402 17.5021 67.3616 17.1915 66.7312 17.0654C66.1009 16.9393 65.4473 17.0035 64.8535 17.2498C64.2598 17.4962 63.7526 17.9135 63.3966 18.4487C63.0407 18.984 62.8519 19.613 62.8543 20.2559V62.726L66.1026 69.166L69.3581 62.726V20.2559C69.3569 19.8281 69.2711 19.4049 69.1055 19.0105C68.94 18.6161 68.698 18.2583 68.3935 17.9579Z" fill="#E0E0E0"/>
<path d="M72.6064 22.4336H66.1025V26.7246H72.6064V22.4336Z" fill="white"/>
<path d="M72.6064 18.5606V22.4331H66.1025V18.5606C66.1416 17.7244 66.5013 16.9354 67.1069 16.3574C67.7124 15.7795 68.5174 15.457 69.3545 15.457C70.1916 15.457 70.9965 15.7795 71.6021 16.3574C72.2077 16.9354 72.5673 17.7244 72.6064 18.5606Z" fill="#DB748A"/>
<path d="M72.6064 26.7246V61.0312C71.6755 60.3106 70.5317 59.9196 69.3545 59.9196C68.1773 59.9196 67.0334 60.3106 66.1025 61.0312V26.7246H72.6064Z" fill="#4962A6"/>
<path d="M72.6064 61.0316L69.3509 67.4716L66.1025 61.0316C67.0334 60.3109 68.1773 59.9199 69.3545 59.9199C70.5317 59.9199 71.6755 60.3109 72.6064 61.0316Z" fill="#BF6948"/>
<path d="M72.6064 61.0312L69.3509 67.4712L66.1025 61.0312V26.7246V22.4336H72.6064V26.7246V61.0312Z" stroke="#402318" stroke-width="3" stroke-linecap="round" stroke-linejoin="round"/>
<path d="M66.1025 22.4331V18.5606C66.1416 17.7244 66.5013 16.9354 67.1069 16.3574C67.7124 15.7795 68.5174 15.457 69.3545 15.457C70.1916 15.457 70.9965 15.7795 71.6021 16.3574C72.2077 16.9354 72.5673 17.7244 72.6064 18.5606V22.4331" stroke="#402318" stroke-width="3" stroke-linecap="round" stroke-linejoin="round"/>
<path d="M66.1025 26.7246H72.6064" stroke="#402318" stroke-width="3" stroke-linecap="round" stroke-linejoin="round"/>
<path d="M66.1025 61.0316C67.0334 60.3109 68.1773 59.9199 69.3545 59.9199C70.5317 59.9199 71.6755 60.3109 72.6064 61.0316" stroke="#402318" stroke-width="3" stroke-linecap="round" stroke-linejoin="round"/>
</svg>
