<svg width="62" height="81" viewBox="0 0 62 81" fill="none" xmlns="http://www.w3.org/2000/svg">
<path d="M49.2348 15.8112H49.7708C50.5323 15.8112 51.2627 15.5087 51.8011 14.9702C52.3396 14.4317 52.6422 13.7014 52.6422 12.9398V8.42217C52.6422 7.66063 52.3396 6.93028 51.8011 6.39179C51.2627 5.8533 50.5323 5.55078 49.7708 5.55078H2.87139C2.10985 5.55078 1.3795 5.8533 0.841011 6.39179C0.302521 6.93028 0 7.66063 0 8.42217L0 12.9398C0 13.7014 0.302521 14.4317 0.841011 14.9702C1.3795 15.5087 2.10985 15.8112 2.87139 15.8112H3.41695C3.41695 32.695 22.8754 34.1594 22.8754 42.965C22.8754 51.7706 3.41695 53.2063 3.41695 70.1284H2.87139C2.10985 70.1284 1.3795 70.4309 0.841011 70.9694C0.302521 71.5079 0 72.2382 0 72.9997L0 77.5174C0 78.2789 0.302521 79.0093 0.841011 79.5478C1.3795 80.0863 2.10985 80.3888 2.87139 80.3888H49.7708C50.5323 80.3888 51.2627 80.0863 51.8011 79.5478C52.3396 79.0093 52.6422 78.2789 52.6422 77.5174V72.9997C52.6422 72.2382 52.3396 71.5079 51.8011 70.9694C51.2627 70.4309 50.5323 70.1284 49.7708 70.1284H49.2348C49.2348 53.2063 29.7667 51.7802 29.7667 42.965C29.7667 34.1498 49.2348 32.695 49.2348 15.8112Z" fill="#E0E0E0"/>
<path d="M10.7583 12.2603H56.5761C56.5761 29.144 37.1081 30.6084 37.1081 39.414C37.1081 48.2196 56.5761 49.6936 56.5761 66.6061H10.7583C10.7583 49.7223 30.2168 48.2579 30.2168 39.4427C30.2168 30.6276 10.7583 29.144 10.7583 12.2603Z" fill="white"/>
<path d="M52.6416 66.6063C51.6845 57.3796 30.1874 60.318 36.3704 39.4238H30.9913C37.1457 60.318 15.6677 57.3796 14.6436 66.6063H52.6416Z" fill="#FFD600"/>
<path d="M50.1826 26.1583C38.5918 25.249 25.4983 20.7601 14.9507 23.8803C20.6935 30.6759 30.2648 33.241 30.2648 39.4145C30.2634 39.6482 30.2475 39.8816 30.2169 40.1132C32.543 40.2446 34.8765 40.1194 37.1752 39.74C37.1752 39.6347 37.1752 39.5294 37.1752 39.4145C37.1082 33.9876 44.5069 31.3459 50.1826 26.1583Z" fill="#FFD600"/>
<path d="M59.983 69.4773V73.995C59.983 74.7565 59.6805 75.4869 59.142 76.0254C58.6035 76.5639 57.8731 76.8664 57.1116 76.8664H10.2122C9.45067 76.8664 8.72032 76.5639 8.18183 76.0254C7.64334 75.4869 7.34082 74.7565 7.34082 73.995V69.4773C7.34082 68.7158 7.64334 67.9855 8.18183 67.447C8.72032 66.9085 9.45067 66.606 10.2122 66.606H57.1116C57.8731 66.606 58.6035 66.9085 59.142 67.447C59.6805 67.9855 59.983 68.7158 59.983 69.4773Z" fill="#8C4D35"/>
<path d="M59.983 4.87139V9.38905C59.983 10.1506 59.6805 10.8809 59.142 11.4194C58.6035 11.9579 57.8731 12.2604 57.1116 12.2604H10.2122C9.45067 12.2604 8.72032 11.9579 8.18183 11.4194C7.64334 10.8809 7.34082 10.1506 7.34082 9.38905V4.87139C7.34082 4.10985 7.64334 3.3795 8.18183 2.84101C8.72032 2.30252 9.45067 2 10.2122 2H57.1116C57.8731 2 58.6035 2.30252 59.142 2.84101C59.6805 3.3795 59.983 4.10985 59.983 4.87139Z" fill="#8C4D35"/>
<path d="M10.7578 12.2604H10.2122C9.45067 12.2604 8.72032 11.9579 8.18183 11.4194C7.64334 10.8809 7.34082 10.1506 7.34082 9.38905V4.87139C7.34082 4.10985 7.64334 3.3795 8.18183 2.84101C8.72032 2.30252 9.45067 2 10.2122 2H57.1116C57.8731 2 58.6035 2.30252 59.142 2.84101C59.6805 3.3795 59.983 4.10985 59.983 4.87139V9.38905C59.983 10.1506 59.6805 10.8809 59.142 11.4194C58.6035 11.9579 57.8731 12.2604 57.1116 12.2604H10.7578Z" stroke="#402318" stroke-width="3" stroke-linecap="round" stroke-linejoin="round"/>
<path d="M56.5756 66.606H57.1116C57.8731 66.606 58.6035 66.9085 59.142 67.447C59.6805 67.9855 59.983 68.7158 59.983 69.4773V73.995C59.983 74.7565 59.6805 75.4869 59.142 76.0254C58.6035 76.5639 57.8731 76.8664 57.1116 76.8664H10.2122C9.45067 76.8664 8.72032 76.5639 8.18183 76.0254C7.64334 75.4869 7.34082 74.7565 7.34082 73.995V69.4773C7.34082 68.7158 7.64334 67.9855 8.18183 67.447C8.72032 66.9085 9.45067 66.606 10.2122 66.606H56.5756Z" stroke="#402318" stroke-width="3" stroke-linecap="round" stroke-linejoin="round"/>
<path d="M10.7583 66.6061C10.7583 49.7223 30.2168 48.2579 30.2168 39.4427C30.2168 30.6276 10.7583 29.144 10.7583 12.2603" stroke="#402318" stroke-width="3" stroke-linecap="round" stroke-linejoin="round"/>
<path d="M56.5759 66.6061C56.5759 49.7223 37.1079 48.2579 37.1079 39.4427C37.1079 30.6276 56.5759 29.144 56.5759 12.2603" stroke="#402318" stroke-width="3" stroke-linecap="round" stroke-linejoin="round"/>
</svg>
