<svg width="134" height="40" viewBox="0 0 134 40" fill="none" xmlns="http://www.w3.org/2000/svg">
<path d="M61.9049 30.3238L64.3847 34.071H67.1045V4.99988L61.9049 5.45283V30.3238ZM62.9849 27.3591C62.0516 28.2375 61.1717 28.8964 60.3451 29.3356C59.5451 29.7748 58.6919 29.9944 57.7853 29.9944C56.852 29.9944 56.0254 29.7474 55.3055 29.2532C54.6122 28.7317 54.0789 28.0316 53.7056 27.1532C53.359 26.2748 53.1857 25.2728 53.1857 24.1473C53.1857 22.9669 53.359 21.9374 53.7056 21.059C54.0789 20.1531 54.6122 19.4393 55.3055 18.9178C55.9988 18.3962 56.8387 18.1354 57.8253 18.1354C58.7052 18.1354 59.5451 18.3413 60.3451 18.7531C61.1717 19.1374 62.0649 19.8648 63.0249 20.9354L64.4647 17.3119C64.0648 16.6805 63.4915 16.0765 62.7449 15.5001C62.0249 14.9236 61.2117 14.4569 60.3051 14.1C59.4252 13.7432 58.5719 13.5647 57.7453 13.5647C55.6655 13.5647 53.8789 14.0177 52.3857 14.9236C50.9192 15.802 49.7859 17.0373 48.986 18.6295C48.2127 20.1943 47.8261 22.0335 47.8261 24.1473C47.8261 26.2336 48.2127 28.0591 48.986 29.6238C49.7859 31.1886 50.9192 32.4102 52.3857 33.2886C53.8523 34.1396 55.5855 34.5651 57.5853 34.5651C58.5186 34.5651 59.3852 34.4141 60.1851 34.1121C61.0117 33.8102 61.785 33.3847 62.5049 32.8357C63.2248 32.2592 63.8781 31.6003 64.4647 30.8592L62.9849 27.3591Z" fill="#1D2746"/>
<path d="M81.074 34.5651C78.9675 34.5651 77.141 34.1396 75.5944 33.2886C74.0479 32.4376 72.848 31.2297 71.9947 29.665C71.1415 28.0728 70.7148 26.2199 70.7148 24.1061C70.7415 21.9649 71.1681 20.1119 71.9947 18.5472C72.848 16.955 74.0479 15.7334 75.5944 14.8824C77.1676 14.004 78.9942 13.5647 81.074 13.5647C83.2071 13.5647 85.0337 13.9902 86.5535 14.8412C88.1001 15.6922 89.3 16.9001 90.1532 18.4648C91.0065 20.0296 91.4331 21.8825 91.4331 24.0237C91.4331 26.1375 91.0065 27.9905 90.1532 29.5827C89.3 31.1748 88.1001 32.4102 86.5535 33.2886C85.007 34.1396 83.1805 34.5651 81.074 34.5651ZM81.114 29.9944C82.1006 29.9944 82.9538 29.7336 83.6738 29.2121C84.4204 28.6905 85.007 27.9767 85.4336 27.0709C85.8603 26.165 86.0736 25.1492 86.0736 24.0237C86.0736 22.8708 85.8603 21.8551 85.4336 20.9766C85.007 20.0982 84.4204 19.4119 83.6738 18.9178C82.9272 18.3962 82.0606 18.1354 81.074 18.1354C80.1141 18.1354 79.2475 18.3962 78.4742 18.9178C77.7276 19.4393 77.141 20.1531 76.7144 21.059C76.2877 21.9374 76.0744 22.9531 76.0744 24.1061C76.0744 25.2591 76.2877 26.2748 76.7144 27.1532C77.141 28.0316 77.7409 28.7317 78.5142 29.2532C79.2875 29.7474 80.1541 29.9944 81.114 29.9944Z" fill="#1D2746"/>
<path d="M108.967 28.6356C108.034 29.0748 107.154 29.4179 106.327 29.665C105.501 29.8846 104.661 29.9944 103.807 29.9944C102.848 29.9944 101.981 29.7474 101.208 29.2532C100.434 28.7317 99.8344 28.0316 99.4078 27.1532C98.9812 26.2748 98.7678 25.2591 98.7678 24.1061C98.7678 22.9531 98.9812 21.9374 99.4078 21.059C99.8344 20.1531 100.421 19.4393 101.168 18.9178C101.941 18.3962 102.808 18.1354 103.767 18.1354C104.674 18.1354 105.527 18.2589 106.327 18.506C107.154 18.7256 108.034 19.055 108.967 19.4942L110.447 15.6648C109.807 15.1981 109.06 14.8138 108.207 14.5118C107.38 14.2098 106.567 13.9765 105.767 13.8118C104.967 13.6471 104.287 13.5647 103.727 13.5647C101.648 13.5647 99.8344 14.004 98.2879 14.8824C96.7413 15.7334 95.5414 16.955 94.6882 18.5472C93.8616 20.1119 93.435 21.9649 93.4083 24.1061C93.4083 26.2199 93.8349 28.0728 94.6882 29.665C95.5414 31.2297 96.7413 32.4376 98.2879 33.2886C99.8344 34.1396 101.648 34.5651 103.727 34.5651C104.287 34.5651 104.967 34.4965 105.767 34.3592C106.567 34.222 107.394 34.0023 108.247 33.7004C109.127 33.371 109.86 32.9729 110.447 32.5062L108.967 28.6356Z" fill="#1D2746"/>
<path d="M111.753 18.2178H114.753V34.071H120.032V18.2178H125.312L123.672 14.1824H120.032V13.4C120.032 12.3294 120.232 11.4647 120.632 10.8059C121.059 10.1196 121.712 9.77643 122.592 9.77643C122.912 9.77643 123.245 9.83134 123.592 9.94114C123.965 10.0235 124.352 10.1608 124.752 10.3529L126.232 6.44108C125.965 6.19402 125.605 5.97441 125.152 5.78224C124.725 5.59009 124.259 5.4391 123.752 5.3293C123.245 5.21949 122.779 5.16459 122.352 5.16459C120.752 5.16459 119.392 5.46655 118.272 6.07049C117.153 6.67442 116.286 7.53914 115.673 8.66465C115.059 9.76271 114.753 11.0804 114.753 12.6177V14.1824H111.793L111.753 18.2178Z" fill="#1D2746"/>
<path d="M133.673 34.071V14.1H128.434V34.071H133.673ZM131.033 11.3C131.833 11.3 132.513 11.0117 133.073 10.4353C133.633 9.83134 133.913 9.10387 133.913 8.25288C133.913 7.40188 133.62 6.68814 133.033 6.11166C132.473 5.53518 131.793 5.24694 130.993 5.24694C130.193 5.24694 129.513 5.53518 128.953 6.11166C128.394 6.68814 128.114 7.40188 128.114 8.25288C128.114 9.10387 128.394 9.83134 128.953 10.4353C129.513 11.0117 130.207 11.3 131.033 11.3Z" fill="#1D2746"/>
<path d="M40 20C40 31.0457 31.0457 40 20 40C8.9543 40 0 31.0457 0 20C0 8.9543 8.9543 0 20 0C31.0457 0 40 8.9543 40 20Z" fill="#15C590"/>
<path d="M29.66 18.44L28.68 22.62C27.84 26.23 26.18 27.69 23.06 27.39C22.56 27.35 22.02 27.26 21.44 27.12L19.76 26.72C15.59 25.73 14.3 23.67 15.28 19.49L16.26 15.3C16.46 14.45 16.7 13.71 17 13.1C18.17 10.68 20.16 10.03 23.5 10.82L25.17 11.21C29.36 12.19 30.64 14.26 29.66 18.44Z" stroke="white" stroke-width="1.5" stroke-linecap="round" stroke-linejoin="round"/>
<path d="M23.06 27.39C22.44 27.81 21.66 28.16 20.71 28.47L19.13 28.99C15.16 30.27 13.07 29.2 11.78 25.23L10.5 21.28C9.22001 17.31 10.28 15.21 14.25 13.93L15.83 13.41C16.24 13.28 16.63 13.17 17 13.1C16.7 13.71 16.46 14.45 16.26 15.3L15.28 19.49C14.3 23.67 15.59 25.73 19.76 26.72L21.44 27.12C22.02 27.26 22.56 27.35 23.06 27.39Z" stroke="white" stroke-width="1.5" stroke-linecap="round" stroke-linejoin="round"/>
<path d="M20.64 16.53L25.49 17.76" stroke="white" stroke-width="1.5" stroke-linecap="round" stroke-linejoin="round"/>
<path d="M19.66 20.4L22.56 21.14" stroke="white" stroke-width="1.5" stroke-linecap="round" stroke-linejoin="round"/>
</svg>
